<?xml version="1.0" standalone="no"?>
<!DOCTYPE svg PUBLIC "-//W3C//DTD SVG 20010904//EN"
 "http://www.w3.org/TR/2001/REC-SVG-20010904/DTD/svg10.dtd">
<svg version="1.0" xmlns="http://www.w3.org/2000/svg"
 width="500.000000pt" height="500.000000pt" viewBox="0 0 500.000000 500.000000"
 preserveAspectRatio="xMidYMid meet">
<metadata>
Created by potrace 1.14, written by Peter Selinger 2001-2017
</metadata>
<g transform="translate(0.000000,500.000000) scale(0.100000,-0.100000)"
fill="#000000" stroke="none">
<path d="M2345 4602 c-3 -3 -29 -6 -58 -8 -28 -1 -52 -3 -52 -4 0 -1 -13 -3
-30 -4 -16 -2 -50 -7 -75 -11 -25 -4 -51 -8 -57 -8 -7 0 -13 -4 -13 -8 0 -4
-8 -6 -17 -4 -10 1 -24 -2 -30 -8 -7 -5 -13 -7 -13 -4 0 3 -20 -1 -44 -8 -24
-8 -47 -11 -50 -8 -3 4 -6 2 -6 -4 0 -5 -6 -10 -12 -11 -27 -2 -81 -18 -123
-37 -83 -36 -110 -48 -115 -49 -13 -3 -76 -30 -80 -35 -3 -3 -23 -15 -45 -26
-63 -31 -204 -119 -275 -172 -72 -52 -84 -62 -135 -110 -18 -17 -36 -29 -39
-25 -3 3 -6 -2 -6 -11 0 -9 -7 -17 -15 -17 -8 0 -15 -7 -15 -15 0 -8 -4 -14
-8 -12 -5 1 -29 -20 -53 -47 -24 -27 -61 -67 -81 -88 -20 -21 -34 -38 -30 -38
3 0 -3 -8 -14 -19 -33 -32 -53 -59 -47 -65 3 -3 -2 -8 -11 -12 -9 -3 -16 -12
-16 -20 0 -8 -4 -14 -8 -14 -5 0 -15 -12 -23 -27 -7 -16 -24 -41 -36 -56 -13
-16 -23 -35 -23 -43 0 -8 -4 -14 -8 -14 -5 0 -17 -19 -28 -42 -10 -24 -21 -45
-25 -48 -3 -3 -19 -32 -34 -65 -15 -33 -34 -76 -43 -95 -9 -19 -15 -38 -14
-42 1 -5 -2 -8 -6 -8 -5 0 -9 -7 -10 -15 -1 -8 -3 -22 -4 -30 -1 -8 -6 -15
-11 -15 -6 0 -8 -3 -5 -6 4 -3 0 -21 -8 -40 -8 -19 -14 -36 -14 -39 0 -3 0 -6
-1 -7 0 -2 -2 -10 -4 -18 -3 -8 -12 -42 -20 -75 -9 -33 -18 -71 -20 -85 -2
-14 -4 -26 -5 -27 -1 -2 -4 -7 -5 -13 -1 -5 -3 -11 -4 -12 -1 -2 -4 -30 -7
-63 -5 -73 -10 -101 -20 -116 -5 -8 -3 -9 6 -4 10 6 11 4 4 -6 -12 -19 -14
-301 -2 -316 6 -7 5 -14 -2 -18 -6 -3 -7 -11 -4 -17 4 -6 8 -30 10 -52 1 -23
5 -63 9 -91 4 -27 8 -58 8 -67 1 -10 5 -18 9 -18 4 0 5 -7 2 -15 -4 -8 -1 -21
5 -29 6 -7 9 -15 6 -18 -3 -2 0 -20 6 -39 6 -19 13 -47 16 -64 3 -16 9 -36 15
-42 6 -7 8 -20 4 -28 -3 -9 0 -18 8 -21 8 -3 13 -13 12 -22 -3 -15 11 -54 46
-132 7 -14 12 -27 13 -30 1 -3 8 -18 15 -35 7 -16 14 -32 16 -35 1 -3 5 -15 9
-27 4 -13 12 -23 17 -23 5 0 6 -4 3 -10 -3 -5 -1 -10 5 -10 6 0 8 -4 5 -10 -3
-5 -1 -10 5 -10 6 0 8 -4 5 -10 -3 -5 -2 -10 2 -10 5 0 19 -21 31 -46 12 -25
40 -70 62 -99 22 -30 40 -59 40 -65 0 -5 4 -10 8 -10 5 0 17 -16 27 -35 11
-19 21 -32 23 -30 3 2 18 -14 35 -37 16 -23 40 -51 53 -63 13 -12 24 -27 24
-33 0 -6 9 -14 21 -17 11 -4 18 -9 15 -12 -6 -7 60 -73 74 -73 5 0 10 -7 10
-15 0 -8 4 -15 10 -15 5 0 20 -11 34 -25 14 -14 28 -25 31 -25 3 0 16 -10 29
-23 32 -30 65 -57 72 -57 2 0 14 -9 26 -20 12 -11 27 -20 34 -20 6 0 15 -7 18
-16 3 -8 10 -12 16 -9 5 3 10 1 10 -4 0 -6 7 -11 15 -11 9 0 18 -7 21 -15 4
-8 9 -13 14 -10 4 2 17 -5 28 -16 12 -10 24 -19 27 -19 3 0 33 -14 68 -32 34
-18 64 -32 67 -33 3 0 19 -9 37 -18 18 -9 39 -17 48 -17 8 0 15 -5 15 -11 0
-5 5 -7 10 -4 6 3 10 2 10 -3 0 -5 6 -9 13 -10 6 0 59 -17 116 -37 58 -20 111
-33 118 -31 7 3 13 2 13 -3 0 -8 67 -25 140 -36 19 -3 46 -8 60 -11 27 -5 84
-12 165 -20 63 -6 277 -7 330 -1 22 3 69 8 103 12 35 3 75 10 88 15 13 5 24 7
24 4 0 -2 10 0 21 7 17 9 20 8 14 -2 -5 -8 -4 -10 3 -5 7 4 21 9 32 12 11 2
29 6 40 9 11 3 30 7 41 10 30 6 90 25 114 35 11 5 29 11 40 13 48 12 241 93
255 107 3 3 30 17 60 33 59 29 112 59 120 67 3 3 32 23 65 45 33 22 62 43 63
48 2 4 9 7 15 7 7 0 18 9 25 21 7 12 16 18 19 15 4 -3 21 10 40 29 19 19 36
35 39 35 9 0 169 165 167 172 -2 4 3 8 11 8 8 0 16 4 18 9 4 10 57 79 81 103
9 10 17 20 17 23 0 3 11 18 25 33 14 15 25 31 25 35 0 5 6 15 13 22 30 34 37
45 31 45 -4 0 3 11 16 25 13 14 20 25 17 25 -4 0 1 9 10 20 9 10 18 26 19 35
1 9 9 24 17 33 16 20 77 146 77 161 0 6 5 11 12 11 6 0 8 3 5 7 -4 3 -3 11 2
17 9 11 30 73 32 91 0 6 7 17 14 25 8 9 13 24 11 35 -2 11 0 22 5 25 4 3 9 19
11 35 2 17 6 32 10 35 7 6 20 61 22 93 0 9 3 17 6 17 3 0 6 10 7 23 0 12 3 36
6 52 23 118 28 184 28 365 0 159 -3 208 -16 295 -4 28 -9 59 -10 71 -1 11 -4
24 -7 30 -3 5 -4 21 -3 37 1 15 -2 27 -6 27 -4 0 -8 8 -7 18 0 24 -9 57 -22
82 -6 11 -8 25 -5 30 3 5 1 11 -5 15 -5 3 -10 19 -10 36 0 16 -4 29 -10 29 -5
0 -10 10 -10 23 0 13 -4 27 -10 33 -5 5 -11 18 -13 29 -2 11 -8 30 -15 41 -6
12 -8 24 -5 28 3 3 2 6 -4 6 -5 0 -16 18 -23 40 -7 22 -17 40 -22 40 -4 0 -8
9 -8 19 0 11 -3 21 -7 23 -5 2 -24 33 -43 71 -19 37 -37 67 -41 67 -7 0 -22
39 -20 53 1 4 -6 7 -14 7 -8 0 -15 6 -15 13 0 7 -9 23 -20 35 -11 12 -20 26
-20 32 0 5 -4 10 -10 10 -5 0 -10 5 -10 11 0 7 -13 25 -30 40 -16 16 -30 31
-30 34 1 13 -38 54 -45 47 -5 -4 -5 1 -2 10 4 11 0 19 -14 23 -10 4 -19 12
-19 20 0 8 -8 16 -17 19 -10 3 -27 19 -38 36 -11 16 -23 30 -26 30 -3 0 -26
19 -51 43 -65 62 -107 97 -116 97 -4 0 -13 9 -20 20 -7 11 -18 20 -26 20 -8 0
-17 7 -20 16 -4 9 -9 14 -12 11 -6 -6 -24 6 -52 36 -9 9 -22 17 -29 17 -7 0
-13 4 -13 8 0 5 -16 14 -35 22 -19 8 -35 17 -35 22 0 4 -7 8 -15 8 -8 0 -15 4
-15 9 0 8 -37 24 -52 22 -3 0 -12 6 -18 14 -7 8 -21 15 -31 15 -11 0 -19 4
-19 8 0 9 -70 38 -82 35 -4 -2 -8 2 -8 7 0 6 -7 10 -15 10 -9 0 -27 7 -40 16
-14 9 -25 14 -25 11 0 -3 -27 5 -60 18 -33 13 -60 21 -60 18 0 -3 -7 0 -15 7
-8 7 -22 10 -30 6 -9 -3 -18 0 -20 7 -5 11 -18 14 -85 20 -14 1 -27 5 -30 8
-3 4 -25 9 -50 13 -25 3 -65 9 -90 12 -25 4 -57 7 -72 8 -16 0 -28 4 -28 9 0
4 -9 3 -20 -3 -11 -6 -20 -7 -20 -3 0 9 -307 13 -315 5z"/>
</g>
</svg>
